G04 #@! TF.FileFunction,Legend,Bot*
%FSLAX46Y46*%
G04 Gerber Fmt 4.6, Leading zero omitted, Abs format (unit mm)*
G04 Created by KiCad (PCBNEW 4.0.4-stable) date 10/25/16 00:02:51*
%MOMM*%
%LPD*%
G01*
G04 APERTURE LIST*
%ADD10C,0.100000*%
%ADD11C,0.125000*%
G04 APERTURE END LIST*
D10*
D11*
X192539049Y-73233571D02*
X192396192Y-73281190D01*
X192348573Y-73328810D01*
X192300954Y-73424048D01*
X192300954Y-73566905D01*
X192348573Y-73662143D01*
X192396192Y-73709762D01*
X192491430Y-73757381D01*
X192872383Y-73757381D01*
X192872383Y-72757381D01*
X192539049Y-72757381D01*
X192443811Y-72805000D01*
X192396192Y-72852619D01*
X192348573Y-72947857D01*
X192348573Y-73043095D01*
X192396192Y-73138333D01*
X192443811Y-73185952D01*
X192539049Y-73233571D01*
X192872383Y-73233571D01*
X191872383Y-73757381D02*
X191872383Y-73090714D01*
X191872383Y-72757381D02*
X191920002Y-72805000D01*
X191872383Y-72852619D01*
X191824764Y-72805000D01*
X191872383Y-72757381D01*
X191872383Y-72852619D01*
X191396193Y-73757381D02*
X191396193Y-73090714D01*
X191396193Y-73281190D02*
X191348574Y-73185952D01*
X191300955Y-73138333D01*
X191205717Y-73090714D01*
X191110478Y-73090714D01*
X190348573Y-73757381D02*
X190348573Y-72757381D01*
X190348573Y-73709762D02*
X190443811Y-73757381D01*
X190634288Y-73757381D01*
X190729526Y-73709762D01*
X190777145Y-73662143D01*
X190824764Y-73566905D01*
X190824764Y-73281190D01*
X190777145Y-73185952D01*
X190729526Y-73138333D01*
X190634288Y-73090714D01*
X190443811Y-73090714D01*
X190348573Y-73138333D01*
X189158097Y-73471667D02*
X188681906Y-73471667D01*
X189253335Y-73757381D02*
X188920002Y-72757381D01*
X188586668Y-73757381D01*
X188396192Y-73090714D02*
X188015240Y-73090714D01*
X188253335Y-72757381D02*
X188253335Y-73614524D01*
X188205716Y-73709762D01*
X188110478Y-73757381D01*
X188015240Y-73757381D01*
X187824763Y-73090714D02*
X187443811Y-73090714D01*
X187681906Y-72757381D02*
X187681906Y-73614524D01*
X187634287Y-73709762D01*
X187539049Y-73757381D01*
X187443811Y-73757381D01*
X187110477Y-73757381D02*
X187110477Y-73090714D01*
X187110477Y-73281190D02*
X187062858Y-73185952D01*
X187015239Y-73138333D01*
X186920001Y-73090714D01*
X186824762Y-73090714D01*
X186062857Y-73757381D02*
X186062857Y-73233571D01*
X186110476Y-73138333D01*
X186205714Y-73090714D01*
X186396191Y-73090714D01*
X186491429Y-73138333D01*
X186062857Y-73709762D02*
X186158095Y-73757381D01*
X186396191Y-73757381D01*
X186491429Y-73709762D01*
X186539048Y-73614524D01*
X186539048Y-73519286D01*
X186491429Y-73424048D01*
X186396191Y-73376429D01*
X186158095Y-73376429D01*
X186062857Y-73328810D01*
X185158095Y-73709762D02*
X185253333Y-73757381D01*
X185443810Y-73757381D01*
X185539048Y-73709762D01*
X185586667Y-73662143D01*
X185634286Y-73566905D01*
X185634286Y-73281190D01*
X185586667Y-73185952D01*
X185539048Y-73138333D01*
X185443810Y-73090714D01*
X185253333Y-73090714D01*
X185158095Y-73138333D01*
X184872381Y-73090714D02*
X184491429Y-73090714D01*
X184729524Y-72757381D02*
X184729524Y-73614524D01*
X184681905Y-73709762D01*
X184586667Y-73757381D01*
X184491429Y-73757381D01*
X184015238Y-73757381D02*
X184110476Y-73709762D01*
X184158095Y-73662143D01*
X184205714Y-73566905D01*
X184205714Y-73281190D01*
X184158095Y-73185952D01*
X184110476Y-73138333D01*
X184015238Y-73090714D01*
X183872380Y-73090714D01*
X183777142Y-73138333D01*
X183729523Y-73185952D01*
X183681904Y-73281190D01*
X183681904Y-73566905D01*
X183729523Y-73662143D01*
X183777142Y-73709762D01*
X183872380Y-73757381D01*
X184015238Y-73757381D01*
X183253333Y-73757381D02*
X183253333Y-73090714D01*
X183253333Y-73281190D02*
X183205714Y-73185952D01*
X183158095Y-73138333D01*
X183062857Y-73090714D01*
X182967618Y-73090714D01*
X181300951Y-73757381D02*
X181634285Y-73281190D01*
X181872380Y-73757381D02*
X181872380Y-72757381D01*
X181491427Y-72757381D01*
X181396189Y-72805000D01*
X181348570Y-72852619D01*
X181300951Y-72947857D01*
X181300951Y-73090714D01*
X181348570Y-73185952D01*
X181396189Y-73233571D01*
X181491427Y-73281190D01*
X181872380Y-73281190D01*
X180491427Y-73709762D02*
X180586665Y-73757381D01*
X180777142Y-73757381D01*
X180872380Y-73709762D01*
X180919999Y-73614524D01*
X180919999Y-73233571D01*
X180872380Y-73138333D01*
X180777142Y-73090714D01*
X180586665Y-73090714D01*
X180491427Y-73138333D01*
X180443808Y-73233571D01*
X180443808Y-73328810D01*
X180919999Y-73424048D01*
X180110475Y-73090714D02*
X179872380Y-73757381D01*
X179634284Y-73090714D01*
X177919998Y-73662143D02*
X177967617Y-73709762D01*
X178110474Y-73757381D01*
X178205712Y-73757381D01*
X178348570Y-73709762D01*
X178443808Y-73614524D01*
X178491427Y-73519286D01*
X178539046Y-73328810D01*
X178539046Y-73185952D01*
X178491427Y-72995476D01*
X178443808Y-72900238D01*
X178348570Y-72805000D01*
X178205712Y-72757381D01*
X178110474Y-72757381D01*
X177967617Y-72805000D01*
X177919998Y-72852619D01*
X191015239Y-75382381D02*
X191015239Y-74382381D01*
X190681905Y-75096667D01*
X190348572Y-74382381D01*
X190348572Y-75382381D01*
X189443810Y-75382381D02*
X189443810Y-74858571D01*
X189491429Y-74763333D01*
X189586667Y-74715714D01*
X189777144Y-74715714D01*
X189872382Y-74763333D01*
X189443810Y-75334762D02*
X189539048Y-75382381D01*
X189777144Y-75382381D01*
X189872382Y-75334762D01*
X189920001Y-75239524D01*
X189920001Y-75144286D01*
X189872382Y-75049048D01*
X189777144Y-75001429D01*
X189539048Y-75001429D01*
X189443810Y-74953810D01*
X189110477Y-74715714D02*
X188729525Y-74715714D01*
X188967620Y-74382381D02*
X188967620Y-75239524D01*
X188920001Y-75334762D01*
X188824763Y-75382381D01*
X188729525Y-75382381D01*
X188539048Y-74715714D02*
X188158096Y-74715714D01*
X188396191Y-74382381D02*
X188396191Y-75239524D01*
X188348572Y-75334762D01*
X188253334Y-75382381D01*
X188158096Y-75382381D01*
X187824762Y-75382381D02*
X187824762Y-74382381D01*
X187396190Y-75382381D02*
X187396190Y-74858571D01*
X187443809Y-74763333D01*
X187539047Y-74715714D01*
X187681905Y-74715714D01*
X187777143Y-74763333D01*
X187824762Y-74810952D01*
X186539047Y-75334762D02*
X186634285Y-75382381D01*
X186824762Y-75382381D01*
X186920000Y-75334762D01*
X186967619Y-75239524D01*
X186967619Y-74858571D01*
X186920000Y-74763333D01*
X186824762Y-74715714D01*
X186634285Y-74715714D01*
X186539047Y-74763333D01*
X186491428Y-74858571D01*
X186491428Y-74953810D01*
X186967619Y-75049048D01*
X186158095Y-74715714D02*
X185967619Y-75382381D01*
X185777142Y-74906190D01*
X185586666Y-75382381D01*
X185396190Y-74715714D01*
X184300952Y-75334762D02*
X184158095Y-75382381D01*
X183919999Y-75382381D01*
X183824761Y-75334762D01*
X183777142Y-75287143D01*
X183729523Y-75191905D01*
X183729523Y-75096667D01*
X183777142Y-75001429D01*
X183824761Y-74953810D01*
X183919999Y-74906190D01*
X184110476Y-74858571D01*
X184205714Y-74810952D01*
X184253333Y-74763333D01*
X184300952Y-74668095D01*
X184300952Y-74572857D01*
X184253333Y-74477619D01*
X184205714Y-74430000D01*
X184110476Y-74382381D01*
X183872380Y-74382381D01*
X183729523Y-74430000D01*
X183396190Y-74715714D02*
X183205714Y-75382381D01*
X183015237Y-74906190D01*
X182824761Y-75382381D01*
X182634285Y-74715714D01*
X181824761Y-75382381D02*
X181824761Y-74858571D01*
X181872380Y-74763333D01*
X181967618Y-74715714D01*
X182158095Y-74715714D01*
X182253333Y-74763333D01*
X181824761Y-75334762D02*
X181919999Y-75382381D01*
X182158095Y-75382381D01*
X182253333Y-75334762D01*
X182300952Y-75239524D01*
X182300952Y-75144286D01*
X182253333Y-75049048D01*
X182158095Y-75001429D01*
X181919999Y-75001429D01*
X181824761Y-74953810D01*
X181348571Y-75382381D02*
X181348571Y-74715714D01*
X181348571Y-74906190D02*
X181300952Y-74810952D01*
X181253333Y-74763333D01*
X181158095Y-74715714D01*
X181062856Y-74715714D01*
X180872380Y-74715714D02*
X180491428Y-74715714D01*
X180729523Y-74382381D02*
X180729523Y-75239524D01*
X180681904Y-75334762D01*
X180586666Y-75382381D01*
X180491428Y-75382381D01*
X180205713Y-75334762D02*
X180110475Y-75382381D01*
X179919999Y-75382381D01*
X179824760Y-75334762D01*
X179777141Y-75239524D01*
X179777141Y-75191905D01*
X179824760Y-75096667D01*
X179919999Y-75049048D01*
X180062856Y-75049048D01*
X180158094Y-75001429D01*
X180205713Y-74906190D01*
X180205713Y-74858571D01*
X180158094Y-74763333D01*
X180062856Y-74715714D01*
X179919999Y-74715714D01*
X179824760Y-74763333D01*
X189681905Y-77007381D02*
X190015239Y-76531190D01*
X190253334Y-77007381D02*
X190253334Y-76007381D01*
X189872381Y-76007381D01*
X189777143Y-76055000D01*
X189729524Y-76102619D01*
X189681905Y-76197857D01*
X189681905Y-76340714D01*
X189729524Y-76435952D01*
X189777143Y-76483571D01*
X189872381Y-76531190D01*
X190253334Y-76531190D01*
X188824762Y-77007381D02*
X188824762Y-76483571D01*
X188872381Y-76388333D01*
X188967619Y-76340714D01*
X189158096Y-76340714D01*
X189253334Y-76388333D01*
X188824762Y-76959762D02*
X188920000Y-77007381D01*
X189158096Y-77007381D01*
X189253334Y-76959762D01*
X189300953Y-76864524D01*
X189300953Y-76769286D01*
X189253334Y-76674048D01*
X189158096Y-76626429D01*
X188920000Y-76626429D01*
X188824762Y-76578810D01*
X187920000Y-76959762D02*
X188015238Y-77007381D01*
X188205715Y-77007381D01*
X188300953Y-76959762D01*
X188348572Y-76912143D01*
X188396191Y-76816905D01*
X188396191Y-76531190D01*
X188348572Y-76435952D01*
X188300953Y-76388333D01*
X188205715Y-76340714D01*
X188015238Y-76340714D01*
X187920000Y-76388333D01*
X187491429Y-77007381D02*
X187491429Y-76007381D01*
X187062857Y-77007381D02*
X187062857Y-76483571D01*
X187110476Y-76388333D01*
X187205714Y-76340714D01*
X187348572Y-76340714D01*
X187443810Y-76388333D01*
X187491429Y-76435952D01*
X186205714Y-76959762D02*
X186300952Y-77007381D01*
X186491429Y-77007381D01*
X186586667Y-76959762D01*
X186634286Y-76864524D01*
X186634286Y-76483571D01*
X186586667Y-76388333D01*
X186491429Y-76340714D01*
X186300952Y-76340714D01*
X186205714Y-76388333D01*
X186158095Y-76483571D01*
X186158095Y-76578810D01*
X186634286Y-76674048D01*
X185586667Y-77007381D02*
X185681905Y-76959762D01*
X185729524Y-76864524D01*
X185729524Y-76007381D01*
X183967618Y-77007381D02*
X184443809Y-77007381D01*
X184443809Y-76007381D01*
X183253332Y-76959762D02*
X183348570Y-77007381D01*
X183539047Y-77007381D01*
X183634285Y-76959762D01*
X183681904Y-76864524D01*
X183681904Y-76483571D01*
X183634285Y-76388333D01*
X183539047Y-76340714D01*
X183348570Y-76340714D01*
X183253332Y-76388333D01*
X183205713Y-76483571D01*
X183205713Y-76578810D01*
X183681904Y-76674048D01*
X182205713Y-77007381D02*
X182539047Y-76531190D01*
X182777142Y-77007381D02*
X182777142Y-76007381D01*
X182396189Y-76007381D01*
X182300951Y-76055000D01*
X182253332Y-76102619D01*
X182205713Y-76197857D01*
X182205713Y-76340714D01*
X182253332Y-76435952D01*
X182300951Y-76483571D01*
X182396189Y-76531190D01*
X182777142Y-76531190D01*
X181634285Y-77007381D02*
X181729523Y-76959762D01*
X181777142Y-76912143D01*
X181824761Y-76816905D01*
X181824761Y-76531190D01*
X181777142Y-76435952D01*
X181729523Y-76388333D01*
X181634285Y-76340714D01*
X181491427Y-76340714D01*
X181396189Y-76388333D01*
X181348570Y-76435952D01*
X181300951Y-76531190D01*
X181300951Y-76816905D01*
X181348570Y-76912143D01*
X181396189Y-76959762D01*
X181491427Y-77007381D01*
X181634285Y-77007381D01*
X180967618Y-76340714D02*
X180729523Y-77007381D01*
X180491427Y-76340714D02*
X180729523Y-77007381D01*
X180824761Y-77245476D01*
X180872380Y-77293095D01*
X180967618Y-77340714D01*
M02*
