G04 #@! TF.FileFunction,Copper,L1,Top,Signal*
%FSLAX46Y46*%
G04 Gerber Fmt 4.6, Leading zero omitted, Abs format (unit mm)*
G04 Created by KiCad (PCBNEW 4.0.4-stable) date 10/25/16 00:02:51*
%MOMM*%
%LPD*%
G01*
G04 APERTURE LIST*
%ADD10C,0.100000*%
%ADD11C,4.000000*%
%ADD12R,3.960000X3.960000*%
%ADD13R,1.000000X3.000000*%
%ADD14R,3.000000X1.000000*%
%ADD15R,2.032000X1.524000*%
%ADD16R,1.700000X0.900000*%
%ADD17R,1.198880X1.198880*%
%ADD18C,1.524000*%
%ADD19C,2.700020*%
%ADD20C,1.501140*%
%ADD21C,2.999740*%
%ADD22R,0.800100X0.800100*%
%ADD23R,1.250000X1.000000*%
%ADD24R,2.032000X1.727200*%
%ADD25O,2.032000X1.727200*%
%ADD26R,1.600000X1.000000*%
%ADD27R,1.000000X1.600000*%
%ADD28R,0.900000X1.700000*%
%ADD29R,1.300000X1.550000*%
%ADD30R,0.508000X1.143000*%
%ADD31R,2.032000X3.657600*%
%ADD32R,2.032000X1.016000*%
%ADD33R,1.000000X1.250000*%
%ADD34R,1.900000X2.000000*%
%ADD35C,1.900000*%
%ADD36C,1.397000*%
%ADD37C,0.600000*%
%ADD38C,0.300000*%
%ADD39C,0.900000*%
%ADD40C,0.600000*%
G04 APERTURE END LIST*
D10*
D11*
X196220000Y-69850000D03*
D12*
X185420000Y-69850000D03*
D11*
X174620000Y-69850000D03*
D13*
X159940000Y-82040000D03*
X157940000Y-82040000D03*
X155940000Y-82040000D03*
X153940000Y-82040000D03*
X151940000Y-82040000D03*
X149940000Y-82040000D03*
D14*
X146940000Y-66540000D03*
X146940000Y-68540000D03*
X146940000Y-70540000D03*
X146940000Y-72540000D03*
X146940000Y-74540000D03*
X146940000Y-76540000D03*
X146940000Y-78540000D03*
X146940000Y-80540000D03*
X162940000Y-80540000D03*
X162940000Y-78540000D03*
X162940000Y-76540000D03*
X162940000Y-74540000D03*
X162940000Y-72540000D03*
X162940000Y-70540000D03*
X162940000Y-68540000D03*
X162940000Y-66540000D03*
D15*
X195580000Y-91440000D03*
X195580000Y-93980000D03*
X195580000Y-96520000D03*
X187960000Y-96520000D03*
X187960000Y-93980000D03*
X187960000Y-91440000D03*
X187960000Y-83820000D03*
X187960000Y-88900000D03*
X195580000Y-88900000D03*
X195580000Y-83820000D03*
D16*
X180975000Y-98245000D03*
X180975000Y-101145000D03*
X180975000Y-102690000D03*
X180975000Y-105590000D03*
D17*
X147099020Y-106680000D03*
X145000980Y-106680000D03*
D18*
X139700000Y-100330000D03*
X139700000Y-102870000D03*
X137701020Y-102870000D03*
X137701020Y-100330000D03*
D19*
X135001000Y-95600520D03*
X135001000Y-107599480D03*
D20*
X200657880Y-71627140D03*
X200657880Y-74167140D03*
X200657880Y-76199140D03*
X200657880Y-78739140D03*
D21*
X203324880Y-68579140D03*
X203324880Y-82295140D03*
D22*
X183149240Y-98745000D03*
X183149240Y-100645000D03*
X185148220Y-99695000D03*
X183149240Y-103190000D03*
X183149240Y-105090000D03*
X185148220Y-104140000D03*
D20*
X200657880Y-97027140D03*
X200657880Y-99567140D03*
X200657880Y-101599140D03*
X200657880Y-104139140D03*
D21*
X203324880Y-93979140D03*
X203324880Y-107695140D03*
D23*
X155575000Y-105775000D03*
X155575000Y-103775000D03*
X158750000Y-103235000D03*
X158750000Y-101235000D03*
D17*
X132300980Y-69850000D03*
X134399020Y-69850000D03*
X193260980Y-106680000D03*
X195359020Y-106680000D03*
D24*
X170180000Y-80010000D03*
D25*
X170180000Y-77470000D03*
X170180000Y-74930000D03*
X170180000Y-72390000D03*
X170180000Y-69850000D03*
X170180000Y-67310000D03*
D26*
X151130000Y-106910000D03*
X151130000Y-103910000D03*
D27*
X131850000Y-81915000D03*
X134850000Y-81915000D03*
D26*
X143510000Y-67080000D03*
X143510000Y-70080000D03*
D27*
X176125000Y-97790000D03*
X173125000Y-97790000D03*
D26*
X143256000Y-78764000D03*
X143256000Y-81764000D03*
X140970000Y-70080000D03*
X140970000Y-67080000D03*
D16*
X167005000Y-73840000D03*
X167005000Y-70940000D03*
X167005000Y-69395000D03*
X167005000Y-66495000D03*
X167005000Y-78285000D03*
X167005000Y-75385000D03*
D28*
X189410000Y-99568000D03*
X186510000Y-99568000D03*
X190680000Y-102870000D03*
X187780000Y-102870000D03*
D29*
X162850000Y-90005000D03*
X167350000Y-90005000D03*
X167350000Y-97955000D03*
X162850000Y-97955000D03*
D30*
X175260000Y-95250000D03*
X176530000Y-95250000D03*
X177800000Y-95250000D03*
X179070000Y-95250000D03*
X180340000Y-95250000D03*
X181610000Y-95250000D03*
X182880000Y-95250000D03*
X184150000Y-95250000D03*
X184150000Y-85090000D03*
X182880000Y-85090000D03*
X181610000Y-85090000D03*
X180340000Y-85090000D03*
X179070000Y-85090000D03*
X177800000Y-85090000D03*
X176530000Y-85090000D03*
X175260000Y-85090000D03*
D27*
X139470000Y-76200000D03*
X142470000Y-76200000D03*
X190730000Y-106680000D03*
X187730000Y-106680000D03*
D31*
X169037000Y-103505000D03*
D32*
X162433000Y-103505000D03*
X162433000Y-105791000D03*
X162433000Y-101219000D03*
D33*
X136255000Y-67310000D03*
X134255000Y-67310000D03*
D27*
X171680000Y-85090000D03*
X168680000Y-85090000D03*
X176125000Y-82550000D03*
X173125000Y-82550000D03*
D26*
X138430000Y-70080000D03*
X138430000Y-67080000D03*
D27*
X148312000Y-85852000D03*
X145312000Y-85852000D03*
X158012000Y-85852000D03*
X161012000Y-85852000D03*
D34*
X138430000Y-87630000D03*
D35*
X135890000Y-87630000D03*
D36*
X138430000Y-73660000D03*
X138430000Y-78740000D03*
X130810000Y-73660000D03*
X130810000Y-78740000D03*
D37*
X198120000Y-106680000D03*
X184150000Y-88900000D03*
X160274000Y-99822000D03*
X193294000Y-88900000D03*
X195580000Y-81280000D03*
X159004000Y-105664000D03*
X193294000Y-93980000D03*
X146812000Y-96266000D03*
X170180000Y-91440000D03*
X165100000Y-96266000D03*
X178562000Y-101854000D03*
X180848000Y-99568000D03*
X137668000Y-76200000D03*
X132334000Y-67564000D03*
X160020000Y-66675000D03*
X153670000Y-78740000D03*
X153670000Y-92075000D03*
X151130000Y-76835000D03*
X151130000Y-92075000D03*
X143256000Y-80264000D03*
X149860000Y-70612000D03*
X160020000Y-68580000D03*
X167005000Y-72390000D03*
X165354000Y-72517000D03*
X174625000Y-82550000D03*
X160020000Y-70485000D03*
X170180000Y-85090000D03*
X177800000Y-92710000D03*
X158242000Y-66548000D03*
X146812000Y-85852000D03*
X149860000Y-72390000D03*
X159512000Y-85852000D03*
X157988000Y-78994000D03*
D38*
X195359020Y-106680000D02*
X198120000Y-106680000D01*
X137701020Y-102870000D02*
X137701020Y-105316020D01*
X139065000Y-106680000D02*
X145000980Y-106680000D01*
X137701020Y-105316020D02*
X139065000Y-106680000D01*
X161012000Y-85852000D02*
X162940000Y-85852000D01*
X162940000Y-85852000D02*
X163068000Y-85852000D01*
X163068000Y-85852000D02*
X162940000Y-85852000D01*
X130810000Y-78740000D02*
X131850000Y-79780000D01*
X131850000Y-79780000D02*
X131850000Y-81915000D01*
X134399020Y-69850000D02*
X134399020Y-75150980D01*
X134399020Y-75150980D02*
X130810000Y-78740000D01*
X134399020Y-69850000D02*
X134399020Y-68867020D01*
X134255000Y-68723000D02*
X134255000Y-67310000D01*
X134399020Y-68867020D02*
X134255000Y-68723000D01*
X162433000Y-101219000D02*
X162433000Y-99695000D01*
X162850000Y-99278000D02*
X162850000Y-97955000D01*
X162433000Y-99695000D02*
X162850000Y-99278000D01*
X155575000Y-103775000D02*
X155575000Y-101981000D01*
X156321000Y-101235000D02*
X158750000Y-101235000D01*
X155575000Y-101981000D02*
X156321000Y-101235000D01*
D39*
X160274000Y-99822000D02*
X161671000Y-101219000D01*
X161671000Y-101219000D02*
X162433000Y-101219000D01*
D40*
X162940000Y-80540000D02*
X162940000Y-85852000D01*
X162940000Y-85852000D02*
X162940000Y-89915000D01*
D38*
X162940000Y-89915000D02*
X162850000Y-90005000D01*
X170180000Y-67310000D02*
X172080000Y-67310000D01*
X172080000Y-67310000D02*
X174620000Y-69850000D01*
X167005000Y-66495000D02*
X169365000Y-66495000D01*
X169365000Y-66495000D02*
X170180000Y-67310000D01*
D39*
X193294000Y-88900000D02*
X195580000Y-88900000D01*
D38*
X182880000Y-85090000D02*
X184150000Y-85090000D01*
X184150000Y-85090000D02*
X184150000Y-88900000D01*
X184150000Y-88900000D02*
X184150000Y-95250000D01*
X182880000Y-95250000D02*
X184150000Y-95250000D01*
X181610000Y-95250000D02*
X182880000Y-95250000D01*
X180340000Y-95250000D02*
X181610000Y-95250000D01*
X181610000Y-85090000D02*
X182880000Y-85090000D01*
X180340000Y-85090000D02*
X181610000Y-85090000D01*
X179070000Y-85090000D02*
X180340000Y-85090000D01*
X174366000Y-69596000D02*
X174620000Y-69850000D01*
D40*
X158750000Y-101235000D02*
X162417000Y-101235000D01*
X162417000Y-101235000D02*
X162433000Y-101219000D01*
D38*
X195580000Y-81280000D02*
X195580000Y-83820000D01*
X155575000Y-105775000D02*
X158893000Y-105775000D01*
X158893000Y-105775000D02*
X159004000Y-105664000D01*
D39*
X159131000Y-105791000D02*
X162433000Y-105791000D01*
X159004000Y-105664000D02*
X159131000Y-105791000D01*
D38*
X190680000Y-102870000D02*
X190680000Y-99568000D01*
X190680000Y-99568000D02*
X191008000Y-99568000D01*
X189410000Y-99568000D02*
X191008000Y-99568000D01*
X191008000Y-99568000D02*
X194056000Y-99568000D01*
X195580000Y-98044000D02*
X195580000Y-96520000D01*
X194056000Y-99568000D02*
X195580000Y-98044000D01*
X193294000Y-93980000D02*
X192024000Y-92710000D01*
X193548000Y-83820000D02*
X195580000Y-83820000D01*
X192024000Y-85344000D02*
X193548000Y-83820000D01*
X192024000Y-92710000D02*
X192024000Y-85344000D01*
D39*
X193294000Y-93980000D02*
X195580000Y-93980000D01*
D38*
X195580000Y-93980000D02*
X195580000Y-96520000D01*
D40*
X162417000Y-105775000D02*
X162433000Y-105791000D01*
D39*
X195580000Y-91440000D02*
X200660000Y-91440000D01*
X200660000Y-91440000D02*
X200406000Y-91440000D01*
X200406000Y-91440000D02*
X200660000Y-91440000D01*
X200660000Y-88900000D02*
X200660000Y-91440000D01*
X200660000Y-91440000D02*
X200660000Y-92964000D01*
X199643140Y-104139140D02*
X200657880Y-104139140D01*
X198628000Y-103124000D02*
X199643140Y-104139140D01*
X198628000Y-94996000D02*
X198628000Y-103124000D01*
X200660000Y-92964000D02*
X198628000Y-94996000D01*
X200657880Y-88897880D02*
X200657880Y-78739140D01*
X200660000Y-88900000D02*
X200657880Y-88897880D01*
D40*
X146812000Y-93726000D02*
X146812000Y-89154000D01*
X146812000Y-96266000D02*
X146812000Y-93726000D01*
X145312000Y-87654000D02*
X145312000Y-85852000D01*
X146812000Y-89154000D02*
X145312000Y-87654000D01*
X145312000Y-85852000D02*
X145312000Y-83240000D01*
X145312000Y-83240000D02*
X146788000Y-81764000D01*
X143256000Y-81764000D02*
X143256000Y-84836000D01*
X143256000Y-84836000D02*
X144272000Y-85852000D01*
X144272000Y-85852000D02*
X145312000Y-85852000D01*
X143256000Y-81764000D02*
X146788000Y-81764000D01*
X146940000Y-81612000D02*
X146940000Y-80540000D01*
D38*
X146788000Y-81764000D02*
X146940000Y-81612000D01*
X143256000Y-81764000D02*
X142724000Y-81764000D01*
X142724000Y-81764000D02*
X140970000Y-80010000D01*
X138430000Y-87630000D02*
X138430000Y-82550000D01*
X138430000Y-82550000D02*
X140970000Y-80010000D01*
X140970000Y-70080000D02*
X140970000Y-80010000D01*
X172847000Y-88773000D02*
X172720000Y-88900000D01*
X170180000Y-91440000D02*
X172847000Y-88773000D01*
D40*
X162433000Y-103505000D02*
X164719000Y-103505000D01*
X165100000Y-103124000D02*
X165100000Y-96266000D01*
X164719000Y-103505000D02*
X165100000Y-103124000D01*
D38*
X158750000Y-103235000D02*
X160385000Y-103235000D01*
X160655000Y-103505000D02*
X162433000Y-103505000D01*
X160385000Y-103235000D02*
X160655000Y-103505000D01*
X180975000Y-98245000D02*
X180975000Y-99441000D01*
X179398000Y-102690000D02*
X180975000Y-102690000D01*
X178562000Y-101854000D02*
X179398000Y-102690000D01*
X180975000Y-99441000D02*
X180848000Y-99568000D01*
X173125000Y-97790000D02*
X173125000Y-99211000D01*
X179631000Y-98245000D02*
X180975000Y-98245000D01*
X178308000Y-99568000D02*
X179631000Y-98245000D01*
X173482000Y-99568000D02*
X178308000Y-99568000D01*
X173125000Y-99211000D02*
X173482000Y-99568000D01*
X176530000Y-95250000D02*
X176530000Y-92710000D01*
X175514000Y-91694000D02*
X173125000Y-91694000D01*
X176530000Y-92710000D02*
X175514000Y-91694000D01*
X168680000Y-85090000D02*
X168680000Y-86638000D01*
X173125000Y-89051000D02*
X173125000Y-91694000D01*
X173125000Y-91694000D02*
X173125000Y-97790000D01*
X172466000Y-88392000D02*
X173125000Y-89051000D01*
X170434000Y-88392000D02*
X172466000Y-88392000D01*
X168680000Y-86638000D02*
X170434000Y-88392000D01*
X180975000Y-102690000D02*
X181938000Y-102690000D01*
X181938000Y-102690000D02*
X182438000Y-103190000D01*
X182438000Y-103190000D02*
X183149240Y-103190000D01*
X180975000Y-98245000D02*
X182065000Y-98245000D01*
X182065000Y-98245000D02*
X182565000Y-98745000D01*
X182565000Y-98745000D02*
X183149240Y-98745000D01*
X168680000Y-85090000D02*
X168680000Y-83415000D01*
X169545000Y-82550000D02*
X173125000Y-82550000D01*
X168680000Y-83415000D02*
X169545000Y-82550000D01*
X177800000Y-85090000D02*
X177800000Y-77470000D01*
X177800000Y-77470000D02*
X185420000Y-69850000D01*
X147099020Y-106680000D02*
X150900000Y-106680000D01*
X150900000Y-106680000D02*
X151130000Y-106910000D01*
X132300980Y-69850000D02*
X132300980Y-67597020D01*
X137668000Y-76200000D02*
X139470000Y-76200000D01*
X132300980Y-67597020D02*
X132334000Y-67564000D01*
X190730000Y-106680000D02*
X193260980Y-106680000D01*
X160155000Y-66540000D02*
X162940000Y-66540000D01*
X160020000Y-66675000D02*
X160155000Y-66540000D01*
X167005000Y-78285000D02*
X167005000Y-78105000D01*
X167005000Y-78105000D02*
X170180000Y-74930000D01*
X180975000Y-101145000D02*
X173281000Y-101145000D01*
X155940000Y-86598000D02*
X155940000Y-82040000D01*
X161798000Y-92456000D02*
X155940000Y-86598000D01*
X169672000Y-92456000D02*
X161798000Y-92456000D01*
X171450000Y-94234000D02*
X169672000Y-92456000D01*
X171450000Y-99314000D02*
X171450000Y-94234000D01*
X173281000Y-101145000D02*
X171450000Y-99314000D01*
X180975000Y-101145000D02*
X182065000Y-101145000D01*
X182565000Y-100645000D02*
X183149240Y-100645000D01*
X182065000Y-101145000D02*
X182565000Y-100645000D01*
X186510000Y-99568000D02*
X186510000Y-98372000D01*
X186690000Y-83820000D02*
X187960000Y-83820000D01*
X186182000Y-84328000D02*
X186690000Y-83820000D01*
X186182000Y-98044000D02*
X186182000Y-84328000D01*
X186510000Y-98372000D02*
X186182000Y-98044000D01*
X185148220Y-99695000D02*
X186383000Y-99695000D01*
X186383000Y-99695000D02*
X186510000Y-99568000D01*
X180975000Y-105590000D02*
X175694000Y-105590000D01*
X153940000Y-87138000D02*
X153940000Y-82040000D01*
X161798000Y-94996000D02*
X153940000Y-87138000D01*
X168402000Y-94996000D02*
X161798000Y-94996000D01*
X169672000Y-96266000D02*
X168402000Y-94996000D01*
X169672000Y-99568000D02*
X169672000Y-96266000D01*
X175694000Y-105590000D02*
X169672000Y-99568000D01*
X180975000Y-105590000D02*
X181938000Y-105590000D01*
X182438000Y-105090000D02*
X183149240Y-105090000D01*
X181938000Y-105590000D02*
X182438000Y-105090000D01*
X185148220Y-104140000D02*
X186436000Y-104140000D01*
X186436000Y-104140000D02*
X187706000Y-102870000D01*
X187706000Y-102870000D02*
X187780000Y-102870000D01*
X187960000Y-96520000D02*
X187960000Y-102690000D01*
X187960000Y-102690000D02*
X187780000Y-102870000D01*
X142470000Y-76200000D02*
X142810000Y-76540000D01*
X142810000Y-76540000D02*
X146940000Y-76540000D01*
X187730000Y-106680000D02*
X182880000Y-106680000D01*
X153470000Y-78540000D02*
X146940000Y-78540000D01*
X153670000Y-78740000D02*
X153470000Y-78540000D01*
X153670000Y-106680000D02*
X153670000Y-92075000D01*
X154940000Y-107950000D02*
X153670000Y-106680000D01*
X181610000Y-107950000D02*
X154940000Y-107950000D01*
X182880000Y-106680000D02*
X181610000Y-107950000D01*
X146940000Y-68540000D02*
X137708000Y-68540000D01*
X135509000Y-81915000D02*
X134850000Y-81915000D01*
X136144000Y-81280000D02*
X135509000Y-81915000D01*
X136144000Y-70104000D02*
X136144000Y-81280000D01*
X137708000Y-68540000D02*
X136144000Y-70104000D01*
X134850000Y-81915000D02*
X134850000Y-86590000D01*
X134850000Y-86590000D02*
X135890000Y-87630000D01*
X151130000Y-103910000D02*
X151130000Y-92075000D01*
X148835000Y-74540000D02*
X146940000Y-74540000D01*
X151130000Y-76835000D02*
X148835000Y-74540000D01*
X176125000Y-97790000D02*
X177800000Y-97790000D01*
X179070000Y-96520000D02*
X179070000Y-95250000D01*
X177800000Y-97790000D02*
X179070000Y-96520000D01*
X146940000Y-70540000D02*
X149788000Y-70540000D01*
X143256000Y-80264000D02*
X143256000Y-78764000D01*
X149788000Y-70540000D02*
X149860000Y-70612000D01*
X167005000Y-73840000D02*
X167005000Y-72390000D01*
X160060000Y-68540000D02*
X162940000Y-68540000D01*
X160020000Y-68580000D02*
X160060000Y-68540000D01*
X167005000Y-73840000D02*
X167005000Y-75385000D01*
X167005000Y-69395000D02*
X167005000Y-70940000D01*
X167350000Y-90005000D02*
X167350000Y-84800000D01*
X164964000Y-74540000D02*
X162940000Y-74540000D01*
X165354000Y-74930000D02*
X164964000Y-74540000D01*
X165354000Y-82804000D02*
X165354000Y-74930000D01*
X167350000Y-84800000D02*
X165354000Y-82804000D01*
X176125000Y-82550000D02*
X174625000Y-82550000D01*
X165331000Y-72540000D02*
X162940000Y-72540000D01*
X165354000Y-72517000D02*
X165331000Y-72540000D01*
X176125000Y-82550000D02*
X176530000Y-82955000D01*
X176530000Y-82955000D02*
X176530000Y-85090000D01*
X171680000Y-85090000D02*
X170180000Y-85090000D01*
X160075000Y-70540000D02*
X162940000Y-70540000D01*
X160020000Y-70485000D02*
X160075000Y-70540000D01*
X171680000Y-85090000D02*
X175260000Y-85090000D01*
X136255000Y-67310000D02*
X136906000Y-67310000D01*
X137136000Y-67080000D02*
X138430000Y-67080000D01*
X136906000Y-67310000D02*
X137136000Y-67080000D01*
X140970000Y-67080000D02*
X138430000Y-67080000D01*
X143510000Y-67080000D02*
X140970000Y-67080000D01*
X146940000Y-66540000D02*
X144050000Y-66540000D01*
X144050000Y-66540000D02*
X143510000Y-67080000D01*
X146940000Y-66540000D02*
X158234000Y-66540000D01*
X177800000Y-92710000D02*
X177800000Y-95250000D01*
X158234000Y-66540000D02*
X158242000Y-66548000D01*
X143510000Y-70080000D02*
X143510000Y-71120000D01*
X144930000Y-72540000D02*
X146940000Y-72540000D01*
X143510000Y-71120000D02*
X144930000Y-72540000D01*
X138430000Y-70080000D02*
X138430000Y-73660000D01*
X162940000Y-76540000D02*
X154010000Y-76540000D01*
X146812000Y-85852000D02*
X148312000Y-85852000D01*
X154010000Y-76540000D02*
X149860000Y-72390000D01*
X162940000Y-78540000D02*
X158442000Y-78540000D01*
X159512000Y-85852000D02*
X158012000Y-85852000D01*
X158442000Y-78540000D02*
X157988000Y-78994000D01*
M02*
