G04 #@! TF.FileFunction,Soldermask,Top*
%FSLAX46Y46*%
G04 Gerber Fmt 4.6, Leading zero omitted, Abs format (unit mm)*
G04 Created by KiCad (PCBNEW 4.0.4-stable) date 10/25/16 00:02:51*
%MOMM*%
%LPD*%
G01*
G04 APERTURE LIST*
%ADD10C,0.100000*%
%ADD11C,4.400000*%
%ADD12R,4.360000X4.360000*%
%ADD13R,1.400000X3.400000*%
%ADD14R,3.400000X1.400000*%
%ADD15R,2.432000X1.924000*%
%ADD16R,2.100000X1.300000*%
%ADD17R,1.598880X1.598880*%
%ADD18C,1.924000*%
%ADD19C,3.100020*%
%ADD20C,1.901140*%
%ADD21C,3.399740*%
%ADD22R,1.200100X1.200100*%
%ADD23R,1.650000X1.400000*%
%ADD24R,2.432000X2.127200*%
%ADD25O,2.432000X2.127200*%
%ADD26R,2.000000X1.400000*%
%ADD27R,1.400000X2.000000*%
%ADD28R,1.300000X2.100000*%
%ADD29R,1.700000X1.950000*%
%ADD30R,0.908000X1.543000*%
%ADD31R,2.432000X4.057600*%
%ADD32R,2.432000X1.416000*%
%ADD33R,1.400000X1.650000*%
%ADD34R,2.300000X2.400000*%
%ADD35C,2.300000*%
%ADD36C,1.797000*%
G04 APERTURE END LIST*
D10*
D11*
X196220000Y-69850000D03*
D12*
X185420000Y-69850000D03*
D11*
X174620000Y-69850000D03*
D13*
X159940000Y-82040000D03*
X157940000Y-82040000D03*
X155940000Y-82040000D03*
X153940000Y-82040000D03*
X151940000Y-82040000D03*
X149940000Y-82040000D03*
D14*
X146940000Y-66540000D03*
X146940000Y-68540000D03*
X146940000Y-70540000D03*
X146940000Y-72540000D03*
X146940000Y-74540000D03*
X146940000Y-76540000D03*
X146940000Y-78540000D03*
X146940000Y-80540000D03*
X162940000Y-80540000D03*
X162940000Y-78540000D03*
X162940000Y-76540000D03*
X162940000Y-74540000D03*
X162940000Y-72540000D03*
X162940000Y-70540000D03*
X162940000Y-68540000D03*
X162940000Y-66540000D03*
D15*
X195580000Y-91440000D03*
X195580000Y-93980000D03*
X195580000Y-96520000D03*
X187960000Y-96520000D03*
X187960000Y-93980000D03*
X187960000Y-91440000D03*
X187960000Y-83820000D03*
X187960000Y-88900000D03*
X195580000Y-88900000D03*
X195580000Y-83820000D03*
D16*
X180975000Y-98245000D03*
X180975000Y-101145000D03*
X180975000Y-102690000D03*
X180975000Y-105590000D03*
D17*
X147099020Y-106680000D03*
X145000980Y-106680000D03*
D18*
X139700000Y-100330000D03*
X139700000Y-102870000D03*
X137701020Y-102870000D03*
X137701020Y-100330000D03*
D19*
X135001000Y-95600520D03*
X135001000Y-107599480D03*
D20*
X200657880Y-71627140D03*
X200657880Y-74167140D03*
X200657880Y-76199140D03*
X200657880Y-78739140D03*
D21*
X203324880Y-68579140D03*
X203324880Y-82295140D03*
D22*
X183149240Y-98745000D03*
X183149240Y-100645000D03*
X185148220Y-99695000D03*
X183149240Y-103190000D03*
X183149240Y-105090000D03*
X185148220Y-104140000D03*
D20*
X200657880Y-97027140D03*
X200657880Y-99567140D03*
X200657880Y-101599140D03*
X200657880Y-104139140D03*
D21*
X203324880Y-93979140D03*
X203324880Y-107695140D03*
D23*
X155575000Y-105775000D03*
X155575000Y-103775000D03*
X158750000Y-103235000D03*
X158750000Y-101235000D03*
D17*
X132300980Y-69850000D03*
X134399020Y-69850000D03*
X193260980Y-106680000D03*
X195359020Y-106680000D03*
D24*
X170180000Y-80010000D03*
D25*
X170180000Y-77470000D03*
X170180000Y-74930000D03*
X170180000Y-72390000D03*
X170180000Y-69850000D03*
X170180000Y-67310000D03*
D26*
X151130000Y-106910000D03*
X151130000Y-103910000D03*
D27*
X131850000Y-81915000D03*
X134850000Y-81915000D03*
D26*
X143510000Y-67080000D03*
X143510000Y-70080000D03*
D27*
X176125000Y-97790000D03*
X173125000Y-97790000D03*
D26*
X143256000Y-78764000D03*
X143256000Y-81764000D03*
X140970000Y-70080000D03*
X140970000Y-67080000D03*
D16*
X167005000Y-73840000D03*
X167005000Y-70940000D03*
X167005000Y-69395000D03*
X167005000Y-66495000D03*
X167005000Y-78285000D03*
X167005000Y-75385000D03*
D28*
X189410000Y-99568000D03*
X186510000Y-99568000D03*
X190680000Y-102870000D03*
X187780000Y-102870000D03*
D29*
X162850000Y-90005000D03*
X167350000Y-90005000D03*
X167350000Y-97955000D03*
X162850000Y-97955000D03*
D30*
X175260000Y-95250000D03*
X176530000Y-95250000D03*
X177800000Y-95250000D03*
X179070000Y-95250000D03*
X180340000Y-95250000D03*
X181610000Y-95250000D03*
X182880000Y-95250000D03*
X184150000Y-95250000D03*
X184150000Y-85090000D03*
X182880000Y-85090000D03*
X181610000Y-85090000D03*
X180340000Y-85090000D03*
X179070000Y-85090000D03*
X177800000Y-85090000D03*
X176530000Y-85090000D03*
X175260000Y-85090000D03*
D27*
X139470000Y-76200000D03*
X142470000Y-76200000D03*
X190730000Y-106680000D03*
X187730000Y-106680000D03*
D31*
X169037000Y-103505000D03*
D32*
X162433000Y-103505000D03*
X162433000Y-105791000D03*
X162433000Y-101219000D03*
D33*
X136255000Y-67310000D03*
X134255000Y-67310000D03*
D27*
X171680000Y-85090000D03*
X168680000Y-85090000D03*
X176125000Y-82550000D03*
X173125000Y-82550000D03*
D26*
X138430000Y-70080000D03*
X138430000Y-67080000D03*
D27*
X148312000Y-85852000D03*
X145312000Y-85852000D03*
X158012000Y-85852000D03*
X161012000Y-85852000D03*
D34*
X138430000Y-87630000D03*
D35*
X135890000Y-87630000D03*
D36*
X138430000Y-73660000D03*
X138430000Y-78740000D03*
X130810000Y-73660000D03*
X130810000Y-78740000D03*
M02*
