M48
;DRILL file {KiCad 4.0.4-stable} date 10/25/16 00:02:55
;FORMAT={-:-/ absolute / inch / decimal}
FMAT,2
INCH,TZ
T1C0.016
T2C0.032
T3C0.039
T4C0.040
T5C0.079
T6C0.091
T7C0.098
T8C0.118
%
G90
G05
M72
T1
X5.21Y-2.66
X5.42Y-3.
X5.64Y-3.16
X5.78Y-3.38
X5.78Y-3.79
X5.9Y-2.78
X5.9Y-2.85
X5.95Y-3.025
X5.95Y-3.625
X6.05Y-3.1
X6.05Y-3.625
X6.22Y-3.11
X6.23Y-2.62
X6.26Y-4.16
X6.28Y-3.38
X6.3Y-2.625
X6.3Y-2.7
X6.3Y-2.775
X6.31Y-3.93
X6.5Y-3.79
X6.51Y-2.855
X6.575Y-2.85
X6.7Y-3.35
X6.7Y-3.6
X6.875Y-3.25
X7.Y-3.65
X7.03Y-4.01
X7.12Y-3.92
X7.25Y-3.5
X7.61Y-3.5
X7.61Y-3.7
X7.7Y-3.2
X7.8Y-4.2
T2
X5.15Y-2.9
X5.15Y-3.1
X5.4213Y-3.95
X5.4213Y-4.05
X5.45Y-2.9
X5.45Y-3.1
X5.5Y-3.95
X5.5Y-4.05
T3
X5.35Y-3.45
X5.45Y-3.45
X7.8999Y-2.82
X7.8999Y-2.92
X7.8999Y-3.
X7.8999Y-3.1
X7.8999Y-3.82
X7.8999Y-3.92
X7.8999Y-4.
X7.8999Y-4.1
T4
X6.7Y-2.65
X6.7Y-2.75
X6.7Y-2.85
X6.7Y-2.95
X6.7Y-3.05
X6.7Y-3.15
T5
X6.8748Y-2.75
X7.7252Y-2.75
T6
X5.315Y-3.7638
X5.315Y-4.2362
X8.0049Y-2.7
X8.0049Y-3.24
X8.0049Y-3.7
X8.0049Y-4.24
T7
X5.65Y-3.6
X6.15Y-3.7
X7.65Y-4.05
T8
X5.3Y-2.45
X7.9Y-2.45
T0
M30
