M48
;DRILL file {KiCad 4.0.1-stable} date 4/16/2016 5:47:13 AM
;FORMAT={-:-/ absolute / inch / decimal}
FMAT,2
INCH,TZ
T1C0.039
T2C0.040
T3C0.051
T4C0.138
%
G90
G05
M72
T1
X5.9Y-3.449
X5.9Y-3.549
X5.9Y-3.649
X5.9Y-3.749
X5.9Y-3.849
X5.9Y-3.949
X5.9Y-4.049
X5.9Y-4.149
X6.2Y-3.449
X6.2Y-3.549
X6.2Y-3.649
X6.2Y-3.749
X6.2Y-3.849
X6.2Y-3.949
X6.2Y-4.049
X6.2Y-4.149
X6.925Y-4.6091
T2
X5.65Y-3.775
X5.65Y-3.875
X5.65Y-3.975
X5.65Y-4.075
X5.65Y-4.175
X5.65Y-4.275
X6.8758Y-3.55
X6.9742Y-3.55
T3
X5.6Y-3.4031
X5.6Y-3.6
X5.65Y-4.4531
X5.65Y-4.65
X5.65Y-4.8531
X5.65Y-5.05
T4
X6.8Y-5.1
X7.2Y-3.4
X7.2Y-5.1
T0
M30
