G04 #@! TF.FileFunction,Legend,Top*
%FSLAX46Y46*%
G04 Gerber Fmt 4.6, Leading zero omitted, Abs format (unit mm)*
G04 Created by KiCad (PCBNEW 4.0.1-stable) date 4/16/2016 5:47:09 AM*
%MOMM*%
G01*
G04 APERTURE LIST*
%ADD10C,0.100000*%
%ADD11C,0.125000*%
%ADD12C,0.150000*%
G04 APERTURE END LIST*
D10*
D11*
X170380951Y-120853571D02*
X170523808Y-120901190D01*
X170571427Y-120948810D01*
X170619046Y-121044048D01*
X170619046Y-121186905D01*
X170571427Y-121282143D01*
X170523808Y-121329762D01*
X170428570Y-121377381D01*
X170047617Y-121377381D01*
X170047617Y-120377381D01*
X170380951Y-120377381D01*
X170476189Y-120425000D01*
X170523808Y-120472619D01*
X170571427Y-120567857D01*
X170571427Y-120663095D01*
X170523808Y-120758333D01*
X170476189Y-120805952D01*
X170380951Y-120853571D01*
X170047617Y-120853571D01*
X171047617Y-121377381D02*
X171047617Y-120710714D01*
X171047617Y-120377381D02*
X170999998Y-120425000D01*
X171047617Y-120472619D01*
X171095236Y-120425000D01*
X171047617Y-120377381D01*
X171047617Y-120472619D01*
X171523807Y-121377381D02*
X171523807Y-120710714D01*
X171523807Y-120901190D02*
X171571426Y-120805952D01*
X171619045Y-120758333D01*
X171714283Y-120710714D01*
X171809522Y-120710714D01*
X172571427Y-121377381D02*
X172571427Y-120377381D01*
X172571427Y-121329762D02*
X172476189Y-121377381D01*
X172285712Y-121377381D01*
X172190474Y-121329762D01*
X172142855Y-121282143D01*
X172095236Y-121186905D01*
X172095236Y-120901190D01*
X172142855Y-120805952D01*
X172190474Y-120758333D01*
X172285712Y-120710714D01*
X172476189Y-120710714D01*
X172571427Y-120758333D01*
X173761903Y-121091667D02*
X174238094Y-121091667D01*
X173666665Y-121377381D02*
X173999998Y-120377381D01*
X174333332Y-121377381D01*
X174523808Y-120710714D02*
X174904760Y-120710714D01*
X174666665Y-120377381D02*
X174666665Y-121234524D01*
X174714284Y-121329762D01*
X174809522Y-121377381D01*
X174904760Y-121377381D01*
X175095237Y-120710714D02*
X175476189Y-120710714D01*
X175238094Y-120377381D02*
X175238094Y-121234524D01*
X175285713Y-121329762D01*
X175380951Y-121377381D01*
X175476189Y-121377381D01*
X175809523Y-121377381D02*
X175809523Y-120710714D01*
X175809523Y-120901190D02*
X175857142Y-120805952D01*
X175904761Y-120758333D01*
X175999999Y-120710714D01*
X176095238Y-120710714D01*
X176857143Y-121377381D02*
X176857143Y-120853571D01*
X176809524Y-120758333D01*
X176714286Y-120710714D01*
X176523809Y-120710714D01*
X176428571Y-120758333D01*
X176857143Y-121329762D02*
X176761905Y-121377381D01*
X176523809Y-121377381D01*
X176428571Y-121329762D01*
X176380952Y-121234524D01*
X176380952Y-121139286D01*
X176428571Y-121044048D01*
X176523809Y-120996429D01*
X176761905Y-120996429D01*
X176857143Y-120948810D01*
X177761905Y-121329762D02*
X177666667Y-121377381D01*
X177476190Y-121377381D01*
X177380952Y-121329762D01*
X177333333Y-121282143D01*
X177285714Y-121186905D01*
X177285714Y-120901190D01*
X177333333Y-120805952D01*
X177380952Y-120758333D01*
X177476190Y-120710714D01*
X177666667Y-120710714D01*
X177761905Y-120758333D01*
X178047619Y-120710714D02*
X178428571Y-120710714D01*
X178190476Y-120377381D02*
X178190476Y-121234524D01*
X178238095Y-121329762D01*
X178333333Y-121377381D01*
X178428571Y-121377381D01*
X178904762Y-121377381D02*
X178809524Y-121329762D01*
X178761905Y-121282143D01*
X178714286Y-121186905D01*
X178714286Y-120901190D01*
X178761905Y-120805952D01*
X178809524Y-120758333D01*
X178904762Y-120710714D01*
X179047620Y-120710714D01*
X179142858Y-120758333D01*
X179190477Y-120805952D01*
X179238096Y-120901190D01*
X179238096Y-121186905D01*
X179190477Y-121282143D01*
X179142858Y-121329762D01*
X179047620Y-121377381D01*
X178904762Y-121377381D01*
X179666667Y-121377381D02*
X179666667Y-120710714D01*
X179666667Y-120901190D02*
X179714286Y-120805952D01*
X179761905Y-120758333D01*
X179857143Y-120710714D01*
X179952382Y-120710714D01*
X181619049Y-121377381D02*
X181285715Y-120901190D01*
X181047620Y-121377381D02*
X181047620Y-120377381D01*
X181428573Y-120377381D01*
X181523811Y-120425000D01*
X181571430Y-120472619D01*
X181619049Y-120567857D01*
X181619049Y-120710714D01*
X181571430Y-120805952D01*
X181523811Y-120853571D01*
X181428573Y-120901190D01*
X181047620Y-120901190D01*
X182428573Y-121329762D02*
X182333335Y-121377381D01*
X182142858Y-121377381D01*
X182047620Y-121329762D01*
X182000001Y-121234524D01*
X182000001Y-120853571D01*
X182047620Y-120758333D01*
X182142858Y-120710714D01*
X182333335Y-120710714D01*
X182428573Y-120758333D01*
X182476192Y-120853571D01*
X182476192Y-120948810D01*
X182000001Y-121044048D01*
X182809525Y-120710714D02*
X183047620Y-121377381D01*
X183285716Y-120710714D01*
X184761907Y-120853571D02*
X184904764Y-120901190D01*
X184952383Y-120948810D01*
X185000002Y-121044048D01*
X185000002Y-121186905D01*
X184952383Y-121282143D01*
X184904764Y-121329762D01*
X184809526Y-121377381D01*
X184428573Y-121377381D01*
X184428573Y-120377381D01*
X184761907Y-120377381D01*
X184857145Y-120425000D01*
X184904764Y-120472619D01*
X184952383Y-120567857D01*
X184952383Y-120663095D01*
X184904764Y-120758333D01*
X184857145Y-120805952D01*
X184761907Y-120853571D01*
X184428573Y-120853571D01*
X171904761Y-122902381D02*
X171904761Y-121902381D01*
X172238095Y-122616667D01*
X172571428Y-121902381D01*
X172571428Y-122902381D01*
X173476190Y-122902381D02*
X173476190Y-122378571D01*
X173428571Y-122283333D01*
X173333333Y-122235714D01*
X173142856Y-122235714D01*
X173047618Y-122283333D01*
X173476190Y-122854762D02*
X173380952Y-122902381D01*
X173142856Y-122902381D01*
X173047618Y-122854762D01*
X172999999Y-122759524D01*
X172999999Y-122664286D01*
X173047618Y-122569048D01*
X173142856Y-122521429D01*
X173380952Y-122521429D01*
X173476190Y-122473810D01*
X173809523Y-122235714D02*
X174190475Y-122235714D01*
X173952380Y-121902381D02*
X173952380Y-122759524D01*
X173999999Y-122854762D01*
X174095237Y-122902381D01*
X174190475Y-122902381D01*
X174380952Y-122235714D02*
X174761904Y-122235714D01*
X174523809Y-121902381D02*
X174523809Y-122759524D01*
X174571428Y-122854762D01*
X174666666Y-122902381D01*
X174761904Y-122902381D01*
X175095238Y-122902381D02*
X175095238Y-121902381D01*
X175523810Y-122902381D02*
X175523810Y-122378571D01*
X175476191Y-122283333D01*
X175380953Y-122235714D01*
X175238095Y-122235714D01*
X175142857Y-122283333D01*
X175095238Y-122330952D01*
X176380953Y-122854762D02*
X176285715Y-122902381D01*
X176095238Y-122902381D01*
X176000000Y-122854762D01*
X175952381Y-122759524D01*
X175952381Y-122378571D01*
X176000000Y-122283333D01*
X176095238Y-122235714D01*
X176285715Y-122235714D01*
X176380953Y-122283333D01*
X176428572Y-122378571D01*
X176428572Y-122473810D01*
X175952381Y-122569048D01*
X176761905Y-122235714D02*
X176952381Y-122902381D01*
X177142858Y-122426190D01*
X177333334Y-122902381D01*
X177523810Y-122235714D01*
X178619048Y-122854762D02*
X178761905Y-122902381D01*
X179000001Y-122902381D01*
X179095239Y-122854762D01*
X179142858Y-122807143D01*
X179190477Y-122711905D01*
X179190477Y-122616667D01*
X179142858Y-122521429D01*
X179095239Y-122473810D01*
X179000001Y-122426190D01*
X178809524Y-122378571D01*
X178714286Y-122330952D01*
X178666667Y-122283333D01*
X178619048Y-122188095D01*
X178619048Y-122092857D01*
X178666667Y-121997619D01*
X178714286Y-121950000D01*
X178809524Y-121902381D01*
X179047620Y-121902381D01*
X179190477Y-121950000D01*
X179523810Y-122235714D02*
X179714286Y-122902381D01*
X179904763Y-122426190D01*
X180095239Y-122902381D01*
X180285715Y-122235714D01*
X181095239Y-122902381D02*
X181095239Y-122378571D01*
X181047620Y-122283333D01*
X180952382Y-122235714D01*
X180761905Y-122235714D01*
X180666667Y-122283333D01*
X181095239Y-122854762D02*
X181000001Y-122902381D01*
X180761905Y-122902381D01*
X180666667Y-122854762D01*
X180619048Y-122759524D01*
X180619048Y-122664286D01*
X180666667Y-122569048D01*
X180761905Y-122521429D01*
X181000001Y-122521429D01*
X181095239Y-122473810D01*
X181571429Y-122902381D02*
X181571429Y-122235714D01*
X181571429Y-122426190D02*
X181619048Y-122330952D01*
X181666667Y-122283333D01*
X181761905Y-122235714D01*
X181857144Y-122235714D01*
X182047620Y-122235714D02*
X182428572Y-122235714D01*
X182190477Y-121902381D02*
X182190477Y-122759524D01*
X182238096Y-122854762D01*
X182333334Y-122902381D01*
X182428572Y-122902381D01*
X182714287Y-122854762D02*
X182809525Y-122902381D01*
X183000001Y-122902381D01*
X183095240Y-122854762D01*
X183142859Y-122759524D01*
X183142859Y-122711905D01*
X183095240Y-122616667D01*
X183000001Y-122569048D01*
X182857144Y-122569048D01*
X182761906Y-122521429D01*
X182714287Y-122426190D01*
X182714287Y-122378571D01*
X182761906Y-122283333D01*
X182857144Y-122235714D01*
X183000001Y-122235714D01*
X183095240Y-122283333D01*
X173238095Y-124427381D02*
X172904761Y-123951190D01*
X172666666Y-124427381D02*
X172666666Y-123427381D01*
X173047619Y-123427381D01*
X173142857Y-123475000D01*
X173190476Y-123522619D01*
X173238095Y-123617857D01*
X173238095Y-123760714D01*
X173190476Y-123855952D01*
X173142857Y-123903571D01*
X173047619Y-123951190D01*
X172666666Y-123951190D01*
X174095238Y-124427381D02*
X174095238Y-123903571D01*
X174047619Y-123808333D01*
X173952381Y-123760714D01*
X173761904Y-123760714D01*
X173666666Y-123808333D01*
X174095238Y-124379762D02*
X174000000Y-124427381D01*
X173761904Y-124427381D01*
X173666666Y-124379762D01*
X173619047Y-124284524D01*
X173619047Y-124189286D01*
X173666666Y-124094048D01*
X173761904Y-124046429D01*
X174000000Y-124046429D01*
X174095238Y-123998810D01*
X175000000Y-124379762D02*
X174904762Y-124427381D01*
X174714285Y-124427381D01*
X174619047Y-124379762D01*
X174571428Y-124332143D01*
X174523809Y-124236905D01*
X174523809Y-123951190D01*
X174571428Y-123855952D01*
X174619047Y-123808333D01*
X174714285Y-123760714D01*
X174904762Y-123760714D01*
X175000000Y-123808333D01*
X175428571Y-124427381D02*
X175428571Y-123427381D01*
X175857143Y-124427381D02*
X175857143Y-123903571D01*
X175809524Y-123808333D01*
X175714286Y-123760714D01*
X175571428Y-123760714D01*
X175476190Y-123808333D01*
X175428571Y-123855952D01*
X176714286Y-124379762D02*
X176619048Y-124427381D01*
X176428571Y-124427381D01*
X176333333Y-124379762D01*
X176285714Y-124284524D01*
X176285714Y-123903571D01*
X176333333Y-123808333D01*
X176428571Y-123760714D01*
X176619048Y-123760714D01*
X176714286Y-123808333D01*
X176761905Y-123903571D01*
X176761905Y-123998810D01*
X176285714Y-124094048D01*
X177333333Y-124427381D02*
X177238095Y-124379762D01*
X177190476Y-124284524D01*
X177190476Y-123427381D01*
X178952382Y-124427381D02*
X178476191Y-124427381D01*
X178476191Y-123427381D01*
X179666668Y-124379762D02*
X179571430Y-124427381D01*
X179380953Y-124427381D01*
X179285715Y-124379762D01*
X179238096Y-124284524D01*
X179238096Y-123903571D01*
X179285715Y-123808333D01*
X179380953Y-123760714D01*
X179571430Y-123760714D01*
X179666668Y-123808333D01*
X179714287Y-123903571D01*
X179714287Y-123998810D01*
X179238096Y-124094048D01*
X180714287Y-124427381D02*
X180380953Y-123951190D01*
X180142858Y-124427381D02*
X180142858Y-123427381D01*
X180523811Y-123427381D01*
X180619049Y-123475000D01*
X180666668Y-123522619D01*
X180714287Y-123617857D01*
X180714287Y-123760714D01*
X180666668Y-123855952D01*
X180619049Y-123903571D01*
X180523811Y-123951190D01*
X180142858Y-123951190D01*
X181285715Y-124427381D02*
X181190477Y-124379762D01*
X181142858Y-124332143D01*
X181095239Y-124236905D01*
X181095239Y-123951190D01*
X181142858Y-123855952D01*
X181190477Y-123808333D01*
X181285715Y-123760714D01*
X181428573Y-123760714D01*
X181523811Y-123808333D01*
X181571430Y-123855952D01*
X181619049Y-123951190D01*
X181619049Y-124236905D01*
X181571430Y-124332143D01*
X181523811Y-124379762D01*
X181428573Y-124427381D01*
X181285715Y-124427381D01*
X181952382Y-123760714D02*
X182190477Y-124427381D01*
X182428573Y-123760714D02*
X182190477Y-124427381D01*
X182095239Y-124665476D01*
X182047620Y-124713095D01*
X181952382Y-124760714D01*
D12*
X151130000Y-116814600D02*
X166370000Y-116814600D01*
X166370000Y-116814600D02*
X166370000Y-121894600D01*
X166370000Y-121894600D02*
X151130000Y-121894600D01*
X151130000Y-116814600D02*
X151130000Y-121894600D01*
X151130000Y-118084600D02*
X152400000Y-118084600D01*
X152400000Y-118084600D02*
X152400000Y-120624600D01*
X152400000Y-120624600D02*
X151130000Y-120624600D01*
X162830000Y-101769600D02*
X164830000Y-101769600D01*
X164830000Y-103919600D02*
X162830000Y-103919600D01*
X164354000Y-97959600D02*
X166354000Y-97959600D01*
X166354000Y-100109600D02*
X164354000Y-100109600D01*
X146245000Y-107680000D02*
X146245000Y-105680000D01*
X148395000Y-105680000D02*
X148395000Y-107680000D01*
X159885000Y-94904600D02*
X159885000Y-93004600D01*
X165235000Y-93004600D02*
X165235000Y-94904600D01*
X170620000Y-114544600D02*
X170620000Y-116544600D01*
X168470000Y-116544600D02*
X168470000Y-114544600D01*
X157988095Y-117536981D02*
X157988095Y-118346505D01*
X158035714Y-118441743D01*
X158083333Y-118489362D01*
X158178571Y-118536981D01*
X158369048Y-118536981D01*
X158464286Y-118489362D01*
X158511905Y-118441743D01*
X158559524Y-118346505D01*
X158559524Y-117536981D01*
X159559524Y-118536981D02*
X158988095Y-118536981D01*
X159273809Y-118536981D02*
X159273809Y-117536981D01*
X159178571Y-117679838D01*
X159083333Y-117775076D01*
X158988095Y-117822695D01*
X163663334Y-105596981D02*
X163330000Y-105120790D01*
X163091905Y-105596981D02*
X163091905Y-104596981D01*
X163472858Y-104596981D01*
X163568096Y-104644600D01*
X163615715Y-104692219D01*
X163663334Y-104787457D01*
X163663334Y-104930314D01*
X163615715Y-105025552D01*
X163568096Y-105073171D01*
X163472858Y-105120790D01*
X163091905Y-105120790D01*
X164615715Y-105596981D02*
X164044286Y-105596981D01*
X164330000Y-105596981D02*
X164330000Y-104596981D01*
X164234762Y-104739838D01*
X164139524Y-104835076D01*
X164044286Y-104882695D01*
X165187334Y-101786981D02*
X164854000Y-101310790D01*
X164615905Y-101786981D02*
X164615905Y-100786981D01*
X164996858Y-100786981D01*
X165092096Y-100834600D01*
X165139715Y-100882219D01*
X165187334Y-100977457D01*
X165187334Y-101120314D01*
X165139715Y-101215552D01*
X165092096Y-101263171D01*
X164996858Y-101310790D01*
X164615905Y-101310790D01*
X165568286Y-100882219D02*
X165615905Y-100834600D01*
X165711143Y-100786981D01*
X165949239Y-100786981D01*
X166044477Y-100834600D01*
X166092096Y-100882219D01*
X166139715Y-100977457D01*
X166139715Y-101072695D01*
X166092096Y-101215552D01*
X165520667Y-101786981D01*
X166139715Y-101786981D01*
X150072381Y-106846666D02*
X149596190Y-107180000D01*
X150072381Y-107418095D02*
X149072381Y-107418095D01*
X149072381Y-107037142D01*
X149120000Y-106941904D01*
X149167619Y-106894285D01*
X149262857Y-106846666D01*
X149405714Y-106846666D01*
X149500952Y-106894285D01*
X149548571Y-106941904D01*
X149596190Y-107037142D01*
X149596190Y-107418095D01*
X149072381Y-106513333D02*
X149072381Y-105894285D01*
X149453333Y-106227619D01*
X149453333Y-106084761D01*
X149500952Y-105989523D01*
X149548571Y-105941904D01*
X149643810Y-105894285D01*
X149881905Y-105894285D01*
X149977143Y-105941904D01*
X150024762Y-105989523D01*
X150072381Y-106084761D01*
X150072381Y-106370476D01*
X150024762Y-106465714D01*
X149977143Y-106513333D01*
X166436190Y-94430791D02*
X166912381Y-94430791D01*
X165912381Y-94764124D02*
X166436190Y-94430791D01*
X165912381Y-94097457D01*
X166912381Y-93240314D02*
X166912381Y-93811743D01*
X166912381Y-93526029D02*
X165912381Y-93526029D01*
X166055238Y-93621267D01*
X166150476Y-93716505D01*
X166198095Y-93811743D01*
X167697381Y-115711266D02*
X167221190Y-116044600D01*
X167697381Y-116282695D02*
X166697381Y-116282695D01*
X166697381Y-115901742D01*
X166745000Y-115806504D01*
X166792619Y-115758885D01*
X166887857Y-115711266D01*
X167030714Y-115711266D01*
X167125952Y-115758885D01*
X167173571Y-115806504D01*
X167221190Y-115901742D01*
X167221190Y-116282695D01*
X167030714Y-114854123D02*
X167697381Y-114854123D01*
X166649762Y-115092219D02*
X167364048Y-115330314D01*
X167364048Y-114711266D01*
X181966667Y-127002381D02*
X181633333Y-126526190D01*
X181395238Y-127002381D02*
X181395238Y-126002381D01*
X181776191Y-126002381D01*
X181871429Y-126050000D01*
X181919048Y-126097619D01*
X181966667Y-126192857D01*
X181966667Y-126335714D01*
X181919048Y-126430952D01*
X181871429Y-126478571D01*
X181776191Y-126526190D01*
X181395238Y-126526190D01*
X182395238Y-126478571D02*
X182728572Y-126478571D01*
X182871429Y-127002381D02*
X182395238Y-127002381D01*
X182395238Y-126002381D01*
X182871429Y-126002381D01*
X183633334Y-126478571D02*
X183300000Y-126478571D01*
X183300000Y-127002381D02*
X183300000Y-126002381D01*
X183776191Y-126002381D01*
X184300000Y-126002381D02*
X184300000Y-126240476D01*
X184061905Y-126145238D02*
X184300000Y-126240476D01*
X184538096Y-126145238D01*
X184157143Y-126430952D02*
X184300000Y-126240476D01*
X184442858Y-126430952D01*
X185061905Y-126002381D02*
X185061905Y-126240476D01*
X184823810Y-126145238D02*
X185061905Y-126240476D01*
X185300001Y-126145238D01*
X184919048Y-126430952D02*
X185061905Y-126240476D01*
X185204763Y-126430952D01*
X171966667Y-127002381D02*
X171633333Y-126526190D01*
X171395238Y-127002381D02*
X171395238Y-126002381D01*
X171776191Y-126002381D01*
X171871429Y-126050000D01*
X171919048Y-126097619D01*
X171966667Y-126192857D01*
X171966667Y-126335714D01*
X171919048Y-126430952D01*
X171871429Y-126478571D01*
X171776191Y-126526190D01*
X171395238Y-126526190D01*
X172395238Y-126478571D02*
X172728572Y-126478571D01*
X172871429Y-127002381D02*
X172395238Y-127002381D01*
X172395238Y-126002381D01*
X172871429Y-126002381D01*
X173633334Y-126478571D02*
X173300000Y-126478571D01*
X173300000Y-127002381D02*
X173300000Y-126002381D01*
X173776191Y-126002381D01*
X174300000Y-126002381D02*
X174300000Y-126240476D01*
X174061905Y-126145238D02*
X174300000Y-126240476D01*
X174538096Y-126145238D01*
X174157143Y-126430952D02*
X174300000Y-126240476D01*
X174442858Y-126430952D01*
X175061905Y-126002381D02*
X175061905Y-126240476D01*
X174823810Y-126145238D02*
X175061905Y-126240476D01*
X175300001Y-126145238D01*
X174919048Y-126430952D02*
X175061905Y-126240476D01*
X175204763Y-126430952D01*
X181766667Y-89802381D02*
X181433333Y-89326190D01*
X181195238Y-89802381D02*
X181195238Y-88802381D01*
X181576191Y-88802381D01*
X181671429Y-88850000D01*
X181719048Y-88897619D01*
X181766667Y-88992857D01*
X181766667Y-89135714D01*
X181719048Y-89230952D01*
X181671429Y-89278571D01*
X181576191Y-89326190D01*
X181195238Y-89326190D01*
X182195238Y-89278571D02*
X182528572Y-89278571D01*
X182671429Y-89802381D02*
X182195238Y-89802381D01*
X182195238Y-88802381D01*
X182671429Y-88802381D01*
X183433334Y-89278571D02*
X183100000Y-89278571D01*
X183100000Y-89802381D02*
X183100000Y-88802381D01*
X183576191Y-88802381D01*
X184100000Y-88802381D02*
X184100000Y-89040476D01*
X183861905Y-88945238D02*
X184100000Y-89040476D01*
X184338096Y-88945238D01*
X183957143Y-89230952D02*
X184100000Y-89040476D01*
X184242858Y-89230952D01*
X184861905Y-88802381D02*
X184861905Y-89040476D01*
X184623810Y-88945238D02*
X184861905Y-89040476D01*
X185100001Y-88945238D01*
X184719048Y-89230952D02*
X184861905Y-89040476D01*
X185004763Y-89230952D01*
M02*
